<svg xmlns="http://www.w3.org/2000/svg" xmlns:xlink="http://www.w3.org/1999/xlink" version="1.1" x="0px" y="0px" viewBox="0 0 100 100" enable-background="new 0 0 100 100" xml:space="preserve"><g><rect x="-192" width="185" height="99"></rect><rect y="-36" width="100" height="30"></rect><text transform="matrix(1 0 0 1 66 -19.5)" fill="#000000" font-family="'Helvetica'" font-size="2.4">http://thenounproject.com</text><text transform="matrix(1 0 0 1 7.166 -24.5)"><tspan x="0" y="0" fill="#000000" font-family="'Helvetica-Bold'" font-size="6.1578">The Noun Project</tspan><tspan x="1.12" y="4.8" fill="#000000" font-family="'Helvetica-Bold'" font-size="4">Icon Template</tspan></text><text transform="matrix(1 0 0 1 -178.5 10.5)" fill="#000000" font-family="'Helvetica-Bold'" font-size="6.1578">Reminders</text><line fill="#000000" stroke="#FFFFFF" stroke-miterlimit="10" x1="8" y1="-14.5" x2="18" y2="-14.5"></line><line fill="#000000" stroke="#FFFFFF" stroke-miterlimit="10" x1="-179" y1="16.5" x2="-162" y2="16.5"></line><g><g><g><rect x="-170.802" y="31.318" fill="#000000" width="8.721" height="8.642"></rect><path fill="#000000" d="M-164.455,42.312h4.747v-4.703h-4.747V42.312z M-159.266,42.749h-5.63V37.17h5.63V42.749      L-159.266,42.749z M-166.221,44.062h8.279v-8.203h-8.279V44.062L-166.221,44.062z M-157.5,44.5h-9.163v-9.079h9.163V44.5      L-157.5,44.5z"></path><polygon fill="#000000" points="-166.149,44.133 -166.292,43.991 -158.013,35.787 -157.871,35.929     "></polygon></g></g></g><rect x="-179" y="58" fill="none" width="35" height="32.5"></rect><text transform="matrix(1 0 0 1 -179 60.1572)"><tspan x="0" y="0" fill="#000000" font-family="'Helvetica-Bold'" font-size="3">Strokes</tspan><tspan x="0" y="5" fill="#000000" font-family="'Helvetica'" font-size="2.4">Try to keep strokes at 4px</tspan><tspan x="0" y="10" fill="#000000" font-family="'Helvetica'" font-size="2.4">Minimum stroke weight is 2px</tspan><tspan x="0" y="14.5" fill="#000000" font-family="'Helvetica'" font-size="2.4">For thicker strokes use even </tspan><tspan x="0" y="17.5" fill="#000000" font-family="'Helvetica'" font-size="2.4">numbers: 6px, 8px etc.</tspan><tspan x="0" y="22" fill="#000000" font-family="'Helvetica-Bold'" font-size="2.4">Remember to expand strokes </tspan><tspan x="0" y="25" fill="#000000" font-family="'Helvetica-Bold'" font-size="2.4">before saving as an SVG </tspan></text><rect x="-136.5" y="58" fill="none" width="35" height="32.5"></rect><text transform="matrix(1 0 0 1 -136.5 60.1572)"><tspan x="0" y="0" fill="#000000" font-family="'Helvetica-Bold'" font-size="3">Size</tspan><tspan x="0" y="5" fill="#000000" font-family="'Helvetica'" font-size="2.4">Cannot be wider or taller than </tspan><tspan x="0" y="8.5" fill="#000000" font-family="'Helvetica'" font-size="2.4">100px (artboard size)</tspan><tspan x="0" y="13.5" fill="#000000" font-family="'Helvetica'" font-size="2.4">Scale your icon to fill as much of </tspan><tspan x="0" y="16.5" fill="#000000" font-family="'Helvetica'" font-size="2.4">the artboard as possible</tspan></text><rect x="-94" y="58" fill="none" width="35" height="32.5"></rect><text transform="matrix(1 0 0 1 -94 60.1572)"><tspan x="0" y="0" fill="#000000" font-family="'Helvetica-Bold'" font-size="3">Ungroup</tspan><tspan x="0" y="5" fill="#000000" font-family="'Helvetica'" font-size="2.4">If your design has more than one </tspan><tspan x="0" y="8" fill="#000000" font-family="'Helvetica'" font-size="2.4">shape, make sure to ungroup</tspan></text><rect x="-50" y="58" fill="none" width="35" height="32.5"></rect><text transform="matrix(1 0 0 1 -50 60.1572)"><tspan x="0" y="0" fill="#000000" font-family="'Helvetica-Bold'" font-size="3">Save as</tspan><tspan x="0" y="5" fill="#000000" font-family="'Helvetica'" font-size="2.4">Save as .SVG and make sure </tspan><tspan x="0" y="8" fill="#000000" font-family="'Helvetica'" font-size="2.4">“Use Artboards” is checked</tspan></text><text transform="matrix(1.0074 0 0 1 -125.542 30.5933)" fill="#000000" font-family="'Helvetica'" font-size="2.5731">100px</text><text transform="matrix(1.0074 0 0 1 -41 39)" fill="#000000" font-family="'Helvetica-Bold'" font-size="5.1462">.SVG</text><rect x="-126.514" y="34.815" fill="#000000" width="10.261" height="10.185"></rect><rect x="-126.477" y="31.766" fill="#000000" width="0.522" height="2.337"></rect><rect x="-116.812" y="31.766" fill="#000000" width="0.523" height="2.337"></rect><rect x="-127" y="32.337" fill="#000000" width="11.233" height="0.572"></rect><g><rect x="-83.805" y="33.844" fill="#000000" width="10.305" height="10.156"></rect><rect x="-76.809" y="28.707" fill="#000000" width="3.308" height="3.261"></rect></g><rect x="-178.5" y="22.5" fill="#000000" stroke="#FFFFFF" stroke-miterlimit="10" width="30" height="30"></rect><rect x="-136.5" y="22.5" fill="#000000" stroke="#FFFFFF" stroke-miterlimit="10" width="30" height="30"></rect><rect x="-93.5" y="22.5" fill="#000000" stroke="#FFFFFF" stroke-miterlimit="10" width="30" height="30"></rect><rect x="-49.5" y="22.5" fill="#000000" stroke="#FFFFFF" stroke-miterlimit="10" width="30" height="30"></rect></g><g><g><path fill="#000000" stroke="#010202" stroke-width="0.0068" d="M30.358,27.729c-0.12,3.406-0.108,6.845,0.551,10.196    c0.128,0.652,0.324,1.292,0.458,1.939c0.007,0.059,0.032,0.104,0.065,0.145c0.308,0.669,1.414,2.939,1.654,3.198    c0.121,0.124,0.189,0.316,0.378,0.334c0.266,0.055,0.536,0.1,0.757,0.267c-0.028,0.204-0.188,0.467,0.008,0.639    c0.34,0.179,0.738,0.203,1.107,0.29c-0.034,0.114-0.069,0.228-0.11,0.346c0.387,0.18,0.814,0.222,1.239,0.23    c0.482,0.01,0.969,0.121,1.452,0.038c0.253-0.03,0.504,0.016,0.753,0.025c0.463,0.041,0.921-0.037,1.367-0.135    c0.435-0.195,0.915-0.342,1.264-0.682c0.308-0.455,0.417-1.005,0.498-1.54c-0.106-0.226-0.405-0.289-0.52-0.511    c-0.08-0.541-0.444-0.977-0.722-1.426c-0.293-0.395-0.84-0.217-1.211-0.462c-0.526-0.302-1.021-0.678-1.592-0.897    c-0.287-0.09-0.345-0.42-0.563-0.598c-0.224-0.185-0.684-0.836-1.086-1.307c0.028-0.004,0.057-0.004,0.085-0.008    c0.23-0.007,0.309-0.25,0.461-0.369c0.201-0.148,0.397-0.303,0.554-0.509c0.217-0.261,0.638-0.307,0.813-0.608    c-0.098-0.306,0.044-0.597,0.286-0.788c0.35-0.087,0.697-0.239,0.954-0.514c-0.113-0.297-0.488-0.362-0.58-0.671    c-0.014-0.179,0.082-0.348,0.237-0.432c0.379-0.208,0.657-0.542,0.938-0.851c-0.12-0.125-0.271-0.221-0.406-0.336    c-0.16-0.128-0.143-0.428,0.054-0.518c0.244-0.155,0.489-0.292,0.716-0.475c-0.127-0.335-0.539-0.603-0.406-0.99    c0.102-0.547,0.263-1.091,0.614-1.535c0.112-0.188,0.311-0.4,0.241-0.629c-0.282-0.205-0.612,0.039-0.912,0.069    c-0.276-0.339-0.065-0.811-0.015-1.196c0.151-0.043,0.311-0.073,0.444-0.163c0.069-0.182,0.055-0.378-0.024-0.556    c-0.104-0.236,0.065-0.469,0.215-0.641c0.323-0.38,0.541-0.828,0.729-1.278c0.132-0.34,0.354-0.641,0.428-1.003    c0.195-0.751,0.504-1.468,0.644-2.234c0.222-0.768,0.332-1.553,0.51-2.332c0.188-1.344,0.527-2.743,0.078-4.071    c-0.151-0.301-0.328-0.597-0.547-0.869c-0.145-0.118-0.31-0.207-0.476-0.312c-0.162,0.386,0.068,0.771,0.023,1.163    c-0.105,0.26-0.257,0.49-0.349,0.759c-0.114,0.013-0.222,0.003-0.32,0.042c-0.048,0.169,0.075,0.375-0.042,0.539    c-0.159,0.188-0.351,0.35-0.533,0.515c0.016,0.43-0.092,0.923-0.484,1.158c0.06,0.272-0.185,0.456-0.219,0.71    c-0.035,0.208-0.31,0.279-0.318,0.499c-0.021,0.246-0.234,0.374-0.392,0.533c0.038,0.202,0.05,0.41,0.068,0.613    c-0.109,0.084-0.218,0.167-0.323,0.258c0.034,0.102,0.062,0.197,0.095,0.298c-0.102,0.08-0.209,0.164-0.3,0.264    c-0.125,0.214-0.133,0.48-0.118,0.724c-0.11,0.019-0.231,0.035-0.335,0.08c-0.035,0.096-0.003,0.198,0,0.298    c-0.084,0.031-0.168,0.062-0.258,0.098c0.128,0.26,0.219,0.616-0.049,0.823c0.07,0.229,0.256,0.538,0.045,0.748    c-0.293,0.353-0.322,0.836-0.506,1.246c-0.074,0.221-0.506,0.2-0.476-0.062c0.096-0.619,0.437-1.205,0.342-1.848    c0.1-0.068,0.194-0.144,0.287-0.208c0.024-0.491,0.081-0.973,0.076-1.465c0.009-0.267,0.102-0.518,0.117-0.789    c0.088-0.071,0.188-0.14,0.286-0.208c-0.023-0.164-0.044-0.338,0.073-0.473c0.14-0.187,0.04-0.417,0.024-0.63    c0.046-0.187,0.272-0.248,0.414-0.369c-0.058-0.143-0.108-0.291-0.17-0.44c0.16-0.124,0.324-0.24,0.479-0.37    c-0.196-0.453-0.16-1.11,0.34-1.353c-0.025-0.105-0.058-0.207-0.084-0.313l0.272-0.387c-0.157-0.355,0.011-0.763,0.315-0.973    c0.1-0.302-0.001-0.625,0.055-0.939c0.342-0.223,0.728-0.389,1.042-0.661c-0.106-0.178-0.194-0.388-0.35-0.538    c-0.591-0.271-1.252-0.063-1.836,0.099c-0.381,0.05-0.666,0.324-1.026,0.408c-0.329,0.075-0.612,0.272-0.894,0.441    c-0.117,0.069-0.235,0.136-0.35,0.207c-0.193,0.118-0.379,0.247-0.531,0.413c-0.232,0.251-0.553,0.387-0.802,0.611    c-0.996,1.053-2.013,2.146-2.58,3.495c-0.121,0.25-0.288,0.471-0.387,0.727c-0.148,0.377-0.436,0.69-0.481,1.1    c-0.134,0.557-0.35,1.087-0.517,1.635C30.652,24.191,30.412,25.96,30.358,27.729z"></path><path fill="#000000" stroke="#010202" stroke-width="0.0068" d="M46.119,42.51c0.24,0.09,0.268-0.272,0.22-0.43    c-0.256-0.287-0.525-0.582-0.858-0.795c-0.33-0.083-0.644-0.202-0.953-0.345c-0.184-0.104-0.432-0.003-0.608-0.141    c-0.165-0.135-0.375-0.065-0.572-0.097c-0.393-0.064-0.806-0.004-1.177-0.174c-0.219-0.131-0.407,0.085-0.58,0.188    c-0.154,0.13-0.36,0.114-0.549,0.142c0.242,0.406,0.482,0.823,0.739,1.22c0.171-0.01,0.356-0.091,0.524,0.003    c0.379,0.212,0.801,0.371,1.229,0.461c0.104,0.05,0.187,0.141,0.302,0.175c0.39,0.075,0.755,0.249,1.154,0.291    c0.31,0.113,0.697,0.152,0.968-0.066c-0.008-0.078-0.008-0.154-0.014-0.225c-0.579-0.251-1.167-0.469-1.745-0.731    c-0.113-0.034-0.101-0.153-0.125-0.242c0.115,0.005,0.238,0.007,0.342,0.057C44.987,42.039,45.545,42.284,46.119,42.51z"></path><path fill="#000000" stroke="#010202" stroke-width="0.0068" d="M29.637,17.309c0.068,0.444,0.202,0.87,0.362,1.278    c0.122,0.422,0.317,0.828,0.632,1.135c0.187,0.187,0.35,0.397,0.521,0.604c0.148-0.22,0.249-0.458,0.323-0.708    c-0.376-0.568-0.828-1.12-0.986-1.791c-0.244-0.704-0.361-1.447-0.549-2.166c-0.32-1.489-0.701-2.952-1.003-4.442l-0.365,0.218    c0.149,1.358,0.479,2.692,0.686,4.035C29.39,16.084,29.547,16.69,29.637,17.309z"></path><path fill="#000000" stroke="#010202" stroke-width="0.0068" d="M58.777,8.165c0.029,0.281,0.229,0.507,0.278,0.777    c0.07,0.321,0.232,0.608,0.293,0.927c0.324,0.917,0.466,1.888,0.66,2.836c0.188,0.019,0.373,0.03,0.56,0.048    c0.038-0.172,0.018-0.347-0.029-0.504c-0.213-1.105-0.543-2.188-0.942-3.229c-0.024-0.368-0.327-0.626-0.383-0.985    c-0.065-0.484-0.48-0.833-0.584-1.304c-0.084-0.407-0.337-0.751-0.553-1.098C58,5.66,57.93,5.684,57.859,5.707    c-0.092,0.596,0.47,0.989,0.533,1.548C58.449,7.585,58.738,7.833,58.777,8.165z"></path><path fill="#000000" stroke="#010202" stroke-width="0.0068" d="M68.624,60.98c-0.108-0.196-0.065-0.437-0.194-0.622    c-0.239-0.416-0.485-0.829-0.733-1.241l-0.117-0.557c-0.578-0.514-1.337-0.75-2.091-0.841c-0.548-0.121-1.101-0.015-1.645,0.06    c-0.49,0.134-1.521,0.551-1.974,0.778c-0.302,0.18-0.671,0.204-0.965,0.399c-0.77,0.479-1.567,0.924-2.354,1.389    c-0.222,0.146-0.507,0.135-0.738,0.264l-0.505,0.203c-0.002-0.009-0.001-0.017-0.003-0.024c-0.333,0.066-0.669,0.036-1.002,0.01    c0.088-0.79,0.136-1.585,0.201-2.38c0.127-0.137,0.31-0.142,0.484-0.17c0,0.001,0,0.001,0,0.001v-0.001    c0.068-0.01,0.134-0.023,0.196-0.051c0.159-0.076,0.257-0.229,0.373-0.364c0.475-0.313,1.084-0.688,1.266-0.796    c0.64-0.383,1.292-0.76,1.921-1.176c0.2-0.134,0.328-0.356,0.534-0.479c0.728-0.455,1.466-0.876,2.182-1.333    c0.135-0.183,0.896-0.899,1.096-1.021c-0.002,0-0.005-0.002-0.008-0.004c0.042-0.023,0.085-0.045,0.12-0.081    c0.333-0.349,0.615-0.751,0.856-1.176c0.254-0.479,0.691-1.619,0.631-2.189c-0.001-0.001-0.001-0.002-0.002-0.003    c0.138-0.284,0.189-0.617,0.372-0.88c0.163-0.209,0.048-0.514,0.237-0.712c0.173-0.191,0.365-0.981,0.45-1.375    c0.014-0.048,0.028-0.095,0.028-0.144c0.001-0.005,0.003-0.013,0.004-0.018c-0.001,0-0.004-0.001-0.004-0.001    c0-0.046,0.001-0.092-0.005-0.138c-0.034-0.213,0.059-0.417,0.07-0.63c0.031-0.215-0.15-0.395-0.086-0.612    c0.049-0.169,0.064-0.347-0.058-0.488c-0.166-0.2-0.171-0.458-0.222-0.699c-0.249-0.168-0.469-0.41-0.761-0.507    c-0.104-0.009-0.254-0.068-0.349-0.018v0c-0.031,0.019-0.057,0.046-0.074,0.092c-0.072,0.315-0.179,0.622-0.393,0.871    c0.061,0.15,0.122,0.3,0.191,0.446c-0.058,0.108-0.106,0.213-0.156,0.317c0.102,0.201,0.231,0.403,0.221,0.634    c-0.006,0.209,0.128,0.372,0.231,0.543c-0.051-0.012-0.052,0.534-0.086,0.556c-0.077,0.045-0.115,0.156-0.123,0.251    c-0.155,0.802-0.405,1.587-0.719,2.343c0.007-0.001,0.015-0.002,0.021-0.004c-0.142,0.244-0.333,0.714-0.416,0.764    c-0.188,0.262-0.321,0.556-0.521,0.816c-0.224,0.301-0.378,0.668-0.7,0.893c-0.213,0.077-0.817,0.63-0.97,0.723v-0.001    c-0.265,0.159-0.492,0.387-0.688,0.627c-0.338,0.215-0.562,0.56-0.908,0.776c-0.189,0.15-0.34,0.353-0.556,0.491    c-0.674,0.435-2.09,1.266-2.968,1.812c-0.256-0.035-0.511-0.052-0.768-0.004c-0.005-0.445,0.015-0.896-0.051-1.333    c-0.002-0.13-0.07-0.276,0.032-0.384c0.197-0.155,0.459-0.219,0.647-0.4c0.117-0.163,0.223-0.347,0.392-0.486    c-0.002-0.001-0.003-0.003-0.005-0.004c0.677-0.714,1.763-1.803,2.375-2.479c0.362-0.301,0.574-0.726,0.901-1.053    c0.722-0.917,1.554-1.742,2.299-2.635c0.222-0.208,0.071-0.538,0.197-0.781c0.11-0.252,0.219-0.523,0.27-0.796    c-0.334,0.285-0.603,0.631-0.922,0.925c-0.553,0.48-1.146,0.939-1.827,1.224c-0.392,0.375-0.824,0.698-1.279,0.998    c-0.227,0.123-0.343,0.365-0.492,0.565c-0.498,0.699-1.044,1.363-1.627,1.981c-0.089,0.106-0.522,0.5-0.82,0.761    c-0.009-0.013-0.017-0.027-0.025-0.04l-0.411-0.353c-0.031-0.118-0.08-0.229-0.129-0.341c0.354-0.454,0.758-0.968,0.881-1.042    c0.263-0.186,0.574-0.306,0.794-0.548c0.355-0.437,0.916-0.623,1.354-0.951c0.06-0.119,0.055-0.267,0.134-0.37    c0.233-0.25,0.553-0.403,0.808-0.632c0.215-0.156,0.366-0.387,0.613-0.506c0.88-0.387,1.635-1.015,2.27-1.731    c0.24-0.255,0.561-0.438,0.761-0.744c-0.347-0.017-0.7-0.076-1.044-0.104c-0.652,0.017-1.305,0.174-1.956,0.086    c-0.295-0.057-0.591-0.113-0.896-0.155c-0.469-0.065-0.881-0.304-1.267-0.559c-0.333-0.212-0.529-0.571-0.699-0.918    c-0.13-0.436-0.061-0.897,0.055-1.331c0.071-0.239-0.126-0.429-0.22-0.616c-0.106,0.044-0.223,0.071-0.315,0.13    c-0.033,0.019-0.059,0.047-0.086,0.072c-0.312,0.448-0.447,0.986-0.493,1.518c-0.115,0.041-0.245,0.073-0.344,0.159    c-0.108,0.224-0.086,0.528-0.277,0.708c-0.271,0.236-0.376,0.589-0.604,0.848c-0.104-0.032-0.194-0.061-0.291-0.097    c-0.182,0.19-0.61,1.069-0.979,1.842c-0.074-0.17-0.149-0.338-0.237-0.501c-0.104-0.189-0.163-0.397-0.203-0.606    c-0.215-0.077-0.533-0.111-0.536-0.398c0.152-0.587,0.284-1.179,0.371-1.782c0.021-0.106-0.044-0.198-0.08-0.289    c-0.413,0.088-0.356,0.634-0.714,0.819c0.014-0.634,0.194-1.284,0.003-1.917l-0.282,0.169c-0.076,0.279-0.095,0.59-0.263,0.84    c-0.033-0.242-0.07-0.491,0.006-0.723c0.105-0.213,0.24-0.442,0.229-0.697c0.033-0.272-0.285-0.475-0.197-0.751    c0.059-0.277,0.094-0.561,0.195-0.827c0.158-0.206,0.326-0.409,0.54-0.565c0.242-0.19,0.405-0.448,0.607-0.671    c-0.027-0.03-0.089-0.086-0.116-0.117c-0.271,0.096-0.505,0.265-0.729,0.436c0.08-0.318,0.197-0.622,0.341-0.913    c0.604-1.52,1.293-3.006,1.775-4.574c0.512-2.033,1.333-3.972,2.202-5.874c0.13-0.517,0.263-1.044,0.505-1.516    c-0.153-0.161-0.308-0.311-0.457-0.465c-0.896,1.592-1.562,3.306-2.243,4.994c-0.101,0.284-0.153,0.586-0.276,0.865    c-0.3,0.638-0.391,1.345-0.665,1.995c-0.146,0.536-0.422,1.027-0.616,1.545c-0.442,0.993-0.896,1.984-1.336,2.983    c-0.053,0.098-0.121,0.186-0.19,0.273c-0.028-0.188,0.007-0.676-0.292-0.535c-0.264,0.746-0.217,1.559-0.447,2.312    c-0.023,0.023-0.056,0.08-0.067,0.106c-0.071-0.415-0.033-0.849-0.156-1.261c-0.084-0.249-0.108-0.523-0.255-0.753    c-0.133-0.191-0.08-0.447-0.195-0.64c-0.244,0.108-0.508,0.135-0.738-0.016c-0.076,0.045-0.158,0.094-0.23,0.146    c0.041,0.115,0.07,0.228,0.111,0.344c-0.119,0.174-0.272,0.34-0.314,0.552c-0.093,0.392-0.173,0.786-0.175,1.189    c-0.012,0.184,0.021,0.379-0.081,0.552c-0.186-0.309-0.179-0.688-0.268-1.026c-0.087-0.209-0.229-0.396-0.277-0.619    c-0.028-0.142-0.051-0.287-0.125-0.411c-0.481-0.805-0.962-1.61-1.437-2.418c-0.125-0.224-0.256-0.444-0.329-0.691    c-0.136-0.619-0.684-1.066-0.782-1.698c-0.068-0.287-0.269-0.512-0.326-0.795c-0.062-0.355-0.304-0.649-0.349-1.006    c-0.182-0.414-0.252-0.858-0.462-1.255c-0.05-0.475-0.376-0.849-0.581-1.268c-0.357-0.627-0.741-1.238-1.148-1.826    c-0.34-0.226-0.492-0.62-0.819-0.854c-0.296-0.261-0.539-0.62-0.913-0.761l0.001,0.001c-0.103,0.22-0.394,0.421-0.306,0.677    c0.41,0.437,0.893,0.82,1.206,1.343c0.146,0.23,0.401,0.358,0.527,0.601c0.379,0.65,0.804,1.266,1.124,1.942    c0.068,0.333,0.223,0.623,0.378,0.913c0.273,0.864,0.547,1.728,0.81,2.588c0.086,0.191,0.186,0.374,0.23,0.572    c0.105,0.535,0.544,0.925,0.664,1.452c0.225,0.705,0.754,1.277,1.014,1.961c0.079,0.336,0.271,0.624,0.456,0.904    c-0.014,0.007-0.037,0.031-0.046,0.046c-0.154-0.132-0.22-0.383-0.448-0.405c-0.009,0.203,0.017,0.401,0.023,0.603    c-0.184-0.058-0.36-0.009-0.504,0.125c0.136,0.32,0.59,0.254,0.726,0.574c0.277,0.479,0.575,0.945,0.837,1.432    c-0.263,0.279-0.335,0.705-0.133,1.042c0.185,0.292,0.157,0.653,0.135,0.975c-0.239-0.258-0.194-0.622-0.369-0.899l-0.31,0.185    c0.078,0.505,0.113,1.016,0.13,1.529c-0.084-0.062-0.161-0.128-0.223-0.202c-0.129-0.167-0.067-0.408-0.195-0.575    c-0.13-0.091-0.289-0.014-0.401,0.063c0.128,0.558,0.235,1.128,0.351,1.695c0.086,0.144,0.24,0.229,0.36,0.354    c0.055,0.154-0.091,0.27-0.171,0.383c-0.276,0.304-0.476,0.659-0.658,1.025c-0.332-0.496-1.073-1.219-1.436-1.511l-0.265,0.073    c-0.136-0.18-0.275-0.367-0.452-0.505c-0.354-0.265-0.355-0.861-0.84-0.954c-0.025-0.369-0.153-0.74-0.428-0.996    c-0.176-0.091-0.377-0.129-0.574-0.179c-0.035,0.067-0.053,0.144-0.055,0.22c-0.01,0.576-0.173,1.131-0.4,1.658    c-0.241,0.583-0.877,0.814-1.412,1.06c-0.373,0.204-0.79,0.21-1.198,0.277c-0.462,0.07-0.925-0.063-1.395-0.007    c-0.623,0.083-1.245-0.114-1.865-0.042v0.001c0.199,0.114,0.423,0.176,0.617,0.312c0.177,0.203,0.299,0.438,0.483,0.636    c0.526,0.554,1.192,0.949,1.842,1.345c0.29,0.19,0.628,0.287,0.929,0.462c0.304,0.164,0.553,0.407,0.847,0.587    c0.285,0.165,0.608,0.251,0.884,0.432c0.333,0.213,0.649,0.462,1.001,0.644c0.332,0.174,1.181,0.803,1.857,1.26    c-0.005,0.02-0.01,0.038-0.015,0.057c-0.045,0.222-0.086,0.439-0.252,0.567l-0.083,0.938l0.001,0.004    c-0.023-0.036-0.044-0.074-0.067-0.11c-0.489-0.1-0.854-0.488-1.238-0.772c-0.288-0.201-0.391-0.561-0.672-0.765    c-0.434-0.367-0.559-0.982-0.994-1.349c-0.303-0.351-0.771-0.463-1.104-0.769c-0.48-0.413-1.13-0.547-1.633-0.919    c-0.476-0.266-0.882-0.648-1.369-0.9l0.002,0.009c0.111,0.232,0.223,0.482,0.436,0.635c0.295,0.198,0.399,0.574,0.685,0.787    c0.302,0.239,0.405,0.645,0.713,0.88c0.24,0.184,0.367,0.472,0.539,0.714c0.106,0.162,0.282,0.252,0.402,0.405    c0.226,0.284,0.35,0.649,0.658,0.866c0.29,0.219,0.368,0.63,0.674,0.83c0.288,0.184,0.355,0.562,0.628,0.754    c0.302,0.222,0.423,0.598,0.717,0.823c0.209,0.163,0.308,0.422,0.474,0.622c0.206,0.11,0.448,0.124,0.664,0.219    c0.112,0.063,0.055,0.201,0.052,0.306c-0.073,0.404-0.029,0.818-0.026,1.224c-0.726-0.091-2.79-0.158-3.448-0.238    c-0.606-0.077-1.179-0.284-1.742-0.509c-0.668-0.198-1.278-0.541-1.937-0.754c0.001-0.002,0.001-0.005,0.002-0.007    c-0.559-0.357-1.843-1.118-2.335-1.552c-0.062-0.047-0.111-0.114-0.158-0.183c-0.091-0.34-0.692-1.475-0.86-1.787    c-0.059-0.394-0.295-0.728-0.34-1.131c-0.04-0.144-0.066-0.345-0.178-0.45c0.101-0.284,0.233-0.813,0.308-0.878    c-0.035-0.137-0.058-0.283-0.082-0.418c0.081-0.114,0.192-0.208,0.237-0.337c-0.032-0.178-0.162-0.333-0.1-0.51    c0.03-0.168,0.122-0.326,0.11-0.487c-0.068-0.146,0.498-1.372,0.733-1.945c0.237-0.573,0.144-0.493-0.326-0.667    c-0.284-0.114-0.053-0.91-0.237-0.744s-0.783,1.44-0.888,1.625c-0.113,0.203-0.215,0.525-0.29,0.753    c-0.076,0.227-0.137,0.386-0.201,0.393c-0.043,0.004-0.085,0.016-0.123,0.036l0,0c-0.062,0.033-0.105,0.091-0.094,0.179    c0.019,0.296-0.24,0.488-0.333,0.74c-0.004,0.319-0.043,0.661-0.265,0.916c0.205,0.39,0.358,1.411,0.264,1.831    c0.116,0.209,0.307,0.404,0.312,0.664c0.021,0.359,0.341,0.617,0.386,0.973c0.041,0.229,0.23,0.981,0.38,1.403    c-0.006,0.005-0.013,0.008-0.018,0.014c0.038,0.072,0.076,0.146,0.114,0.218c0.002,0.005,0.005,0.012,0.007,0.015h0.001    c0.281,0.541,0.583,1.086,1.077,1.461c0.51,0.46,1.854,1.495,2.561,1.632c0.001-0.005,0.001-0.01,0.002-0.016    c0.282,0.086,0.574,0.143,0.857,0.214c0.332,0.102,0.702,0.02,0.993,0.238c1.155,0.34,3.335,0.828,4.827,1.103    c0.237,0.061,0.478,0.115,0.726,0.124c0.025,0.854,0.197,1.704,0.24,2.556c-0.284-0.011-0.624-0.122-0.879,0.06    c0.001,0.006,0.001,0.011,0.002,0.016c-0.481-0.185-1.397-0.438-1.76-0.598c-0.847-0.4-1.683-0.815-2.481-1.291    c-0.516-0.316-1.131-0.471-1.564-0.914c-0.472-0.287-1.697-0.384-2.23-0.496c-0.469-0.111-0.961-0.06-1.445-0.041    c-0.319,0-0.59,0.184-0.874,0.317c-0.001,0.003,0,0.006-0.001,0.01c-0.431,0.254-1.346,0.847-1.687,1.05    c-0.368,0.22-0.736,0.44-1.098,0.672c-0.369,0.239-0.772,0.424-1.12,0.688l-0.334,0.797c-0.139,0.299-0.309,0.577-0.345,0.906    c-0.038,0.359-0.154,0.774,0.132,1.08c0.227-0.136,0.479-0.259,0.635-0.482c0.18-0.244,0.669-0.966,0.813-1.337    c0.422-0.268,0.863-0.506,1.252-0.833c0.45-0.463,1.842-0.852,2.375-1.214c0.776,0.023,2.036,0.271,2.886,0.448    c-0.001,0.004-0.003,0.009-0.005,0.013c0.36,0.242,0.798,0.335,1.208,0.475c0.385,0.114,0.755,0.276,1.125,0.429    c1.31,0.657,3.177,1.562,4.544,2.143c0,0.005-0.002,0.01-0.004,0.017c0.019,0.004,0.038,0.001,0.056,0.006    c0.007,0.002,0.016,0.006,0.022,0.009c0-0.002-0.001-0.006,0-0.007c0.352,0.064,0.708,0.055,1.058-0.02    c0.087,0.35,0.157,0.7,0.19,1.054c-0.308,0.018-0.631-0.013-0.919,0.125c-1.006-0.114-2.596-0.292-3.495-0.507    c-0.661-0.231-1.365-0.313-2.018-0.578c-0.115-0.053-0.248-0.057-0.378-0.054c-0.273,0.107-1.193,0.531-1.441,0.686    c-0.251,0.149-0.478,0.337-0.67,0.56c-0.469,0.449-1.005,1.002-1.025,1.688c-0.001,0-0.003,0.001-0.005,0.001l0.003,0.03    c0,0.024-0.005,0.049-0.003,0.074c0.004-0.001,0.008-0.001,0.013-0.002l0.101,0.791c0.069,0.396,0.324,0.443,0.528,0.798    c0.071,0.556,0.459,0.986,0.712,1.471c0.134,0.209,0.062,0.495,0.217,0.691c0.074,0.123,0.233,0.141,0.353,0.2    c0-0.001,0.002-0.002,0.003-0.004c0.697,0.257,2.014,0.484,2.63,0.222c0.11-0.159-0.067-0.361-0.203-0.449    c-0.412-0.22-0.842-0.439-1.304-0.555l-0.516-0.262c0-0.007,0.003-0.013,0.002-0.02c-0.326-0.608-0.714-1.179-1.02-1.8    c-0.058-0.169-0.179-0.803-0.299-1.17c0.126-0.018,0.251-0.045,0.373-0.098c0.205-0.095,0.302-0.321,0.472-0.459    c0.224-0.171,0.949-0.429,1.096-0.666c0.345,0.047,0.686,0.039,1.034,0.073c1.214,0.076,2.38,0.481,3.587,0.61    c0.467,0.047,1.497,0.454,1.977,0.382c0.167-0.08,0.336-0.172,0.505-0.265c0.015,0.196,0.041,0.396,0.069,0.584    c0.021,0.006,0.039,0.029,0.059,0.041l-0.146,0.474c-0.173,0.318-0.064,0.674,0.021,1.005c0.061,0.226,0.275,0.35,0.456,0.465    c-0.156,0.347-0.722,1.292-0.728,1.687c0.021,0.222,0.027,0.469,0.154,0.665c0.192,0.32,0.357,0.695,0.636,0.943    c-0.259,0.611-0.544,1.205-0.678,1.296c-0.114,0.17-0.188,0.374-0.205,0.58c0.144,0.333,0.37,0.618,0.541,0.936    c0.114,0.176,0.188,0.393,0.381,0.482c0.05,0.025,0.104,0.042,0.156,0.064c-0.121,0.357-0.234,0.79-0.362,0.872    c-0.27,0.188-0.021,0.572-0.215,0.811c-0.079,0.149-0.229,0.257-0.271,0.422c0.058,0.19,0.157,0.373,0.305,0.51    c0.181,0.159,0.369,0.311,0.569,0.446c-0.11,0.631-0.276,1.603-0.355,1.723c-0.129,0.19-0.255,0.386-0.362,0.581    c0.298,0.279,0.727,0.341,1.09,0.496c0.15,0.044,0.294,0.104,0.436,0.169c-0.228,0.268-0.493,0.591-0.558,0.631l-0.002-0.002    c-0.065,0.042-0.122,0.093-0.154,0.172c-0.072,0.129-0.138,0.27-0.196,0.407c0.118,0.037,0.22,0.094,0.314,0.159l-0.333,0.371    c-0.209,0.228-0.455,0.44-0.559,0.735c-0.043,0.082-0.05,0.198-0.135,0.26c-0.354,0.033-0.693-0.081-1.042-0.088    c-0.604,0.035-1.212,0.174-1.77,0.414c-0.422,0.252-0.863,0.479-1.285,0.737l0.002,0.002c-0.166,0.101-0.318,0.22-0.473,0.335    l-0.034,0.007l-0.217,0.17l-0.401,0.659l0.002,0.005c-0.112,0.167-0.216,0.342-0.244,0.542c-0.151,0.855-0.024,1.741,0.162,2.583    l0.531,0.888c0.487,0.408,1.122,0.719,1.776,0.675c0.323-0.101,0.647-0.183,0.961-0.314c0.11-0.065,0.297-0.111,0.278-0.268h0.546    c0.007,0.022,0.002,0.05,0.011,0.072c0.322,0.32,0.757,0.501,1.153,0.711c0.624,0.245,1.291,0.283,1.945,0.379    c0.615,0,1.213-0.175,1.815-0.292c0.191-0.039,0.354-0.156,0.52-0.255l1.068,0.224c0.23,0.04,0.455,0.026,0.684,0l0.948-0.284    c0.148,0.106,0.316,0.184,0.492,0.228c0.48,0.133,0.962,0.266,1.456,0.249c1.19,0.102,2.393-0.263,3.359-0.942l1.239,0.053h0.001    c0.25,0.1,0.504,0.185,0.766,0.241c0.343,0.027,0.664-0.155,1.001-0.169l0.447-0.268c0.02-0.311,0.308-0.482,0.492-0.706    c0.261-0.268,0.263-0.669,0.366-1.012c0.157-0.58,0.153-1.194,0.089-1.79c-0.049-0.484-0.379-0.866-0.646-1.249    c-0.044,0.102-0.092,0.201-0.141,0.3c0.087-0.186,0.141-0.3,0.141-0.3l-0.385-0.441c-0.094-0.094-0.188-0.188-0.3-0.251    c-0.843-0.487-1.733-0.915-2.704-1.054c-0.487-0.036-0.979-0.012-1.447,0.11c-0.189-0.364-0.494-0.639-0.788-0.911l0,0v-0.001    l-0.392-0.364c0.062-0.069,0.124-0.137,0.178-0.213c0.061-0.102,0.148-0.22,0.079-0.338c-0.104-0.189-0.301-0.314-0.442-0.473    c0.07-0.049-0.048-0.347-0.163-0.641c0.309-0.176,0.615-0.357,0.915-0.537c0.265-0.121,0.378-0.479,0.247-0.728    c-0.084-0.23-0.476-0.985-0.811-1.58c0.03-0.03,0.064-0.057,0.094-0.086c0.278-0.224,0.589-0.437,0.758-0.763    c0.199-0.276,0.105-0.622,0.078-0.933c-0.299-0.187-0.511-0.479-0.694-0.771c0-0.039-0.093-0.345-0.2-0.693    c0.305-0.208,0.595-0.438,0.894-0.646c0.367-0.322,0.446-0.846,0.44-1.309c-0.193-0.135-0.553-0.948-0.863-1.636    c0.099-0.126,0.204-0.246,0.332-0.345c0.318-0.452,0.512-1.035,0.358-1.587c-0.103-0.266-0.292-0.488-0.401-0.75    c-0.015-0.079-0.126-0.435-0.206-0.739c0.23-0.118,0.449-0.256,0.64-0.426c-0.036-0.075-0.15-0.555-0.27-1.048    c0.034-0.015,0.07-0.025,0.099-0.052c0.047-0.111,0.006-0.273,0.119-0.351c0.25,0,0.503,0.062,0.752,0.072    c0.209-0.041,0.401-0.127,0.607-0.157c0-0.001,0-0.004,0-0.006c1.056-0.273,2.671-0.72,3.625-0.953    c0.785-0.269,1.597-0.427,2.422-0.508c0.215,0.057,0.611-0.04,1.011-0.001c0.408,0.039,0.817,0.224,1.027,0.299    c0.29,0.106,0.528,0.311,0.812,0.436c0.4,0.658,1.052,1.744,1.373,2.311c0.005-0.002,0.012-0.003,0.017-0.006v0.002    c-0.005,0.001-0.012,0.004-0.017,0.004l0.017,0.038v0.021h0.01l0.155,0.344c-0.013,0.634,0.299,1.244,0.449,1.854    c0.039,0.145,0.114,0.268,0.216,0.376c0.112,0.017,0.256-0.023,0.306-0.127c0.339-0.653,0.373-2.003,0.162-2.75    c0.007-0.002,0.015-0.002,0.022-0.004c-0.014-0.025-0.029-0.05-0.043-0.074c0-0.003-0.001-0.006-0.002-0.009    c-0.001,0-0.002,0.001-0.003,0.001c-0.188-0.348-0.401-0.686-0.598-1.026c-0.127-0.214-0.24-0.435-0.436-0.589    c-0.234-0.189-0.669-1.004-0.874-1.335v-0.001c-0.004-0.007-0.009-0.014-0.013-0.02c-0.011-0.018-0.023-0.039-0.033-0.054    c0,0-0.001,0-0.001,0.001c-0.128-0.204-0.255-0.42-0.466-0.535c-0.683-0.472-2.169-0.799-3.137-0.841v-0.002    c-0.15-0.031-0.31-0.142-0.457-0.045c-0.28,0.141-0.527,0.335-0.843,0.401c-0.301,0.059-0.553,0.247-0.826,0.383    c-0.747,0.251-1.506,0.481-2.281,0.637c-0.278,0.072-1.181,0.15-1.649,0.266c-0.348-0.158-0.76-0.104-1.128-0.105    c0.022-0.321,0.098-0.647,0.127-0.973c0.342,0.031,0.711,0.048,1.03-0.089c0,0.002,0.001,0.004,0.001,0.005    c0.166-0.079,1.146-0.659,1.328-0.714c0.692-0.172,1.248-0.663,1.879-0.965c0.263-0.139,0.575-0.147,0.827-0.317    c0.364-0.189,0.692-0.517,1.121-0.548c0.258-0.053,0.459-0.247,0.724-0.275c0.29-0.057,1.156-0.301,1.583-0.597    c0.004,0.006,0.007,0.012,0.012,0.017c0.6-0.028,1.162,0.183,1.754,0.239c0.334,0.364,0.846,0.882,0.889,1.104    c0.062,0.354,0.359,0.616,0.379,0.978c0.014,0.179,0.126,0.336,0.178,0.501c0.014,0.047,0.02,0.099,0.025,0.152h-0.001    l0.002,0.012c0.005,0.039,0.014,0.075,0.023,0.109l0.151,0.715c-0.045,0.754,0.014,1.508,0.209,2.24    c0.455-0.019,0.637-0.466,0.823-0.809c0.24-0.472,0.218-1.682,0.254-2.198c-0.152-0.254-0.347-0.502-0.392-0.812    C68.827,61.336,68.713,61.16,68.624,60.98z M47.14,39.003L47.14,39.003c0.042-0.024,0.122-0.063,0.163-0.088    c0.088,0.256,0.381,0.482,0.316,0.764C47.364,39.533,47.247,39.258,47.14,39.003z"></path><path fill="#000000" stroke="#010202" stroke-width="0.0068" d="M56.372,38.152c-0.271,0.013-0.287,0.331-0.275,0.539    c0.278,0.263,0.684,0.347,0.995,0.554c0.497,0.067,0.961,0.265,1.45,0.365c0.301,0.269,0.812,0.233,1.085-0.06    c0.402-0.325,0.694-0.403,0.969-0.848c-0.182-0.224-0.447-0.425-0.652-0.589c-0.41-0.203-0.84-0.375-1.229-0.619    c-0.223-0.062-0.451-0.085-0.646-0.221c-0.372-0.123-0.766-0.205-1.169-0.207c-0.105,0.024-0.203,0.066-0.296,0.119l-0.002-0.003    c-0.154,0.088-0.295,0.207-0.425,0.332c0.121,0.124,0.246,0.254,0.41,0.325c0.161,0.052,0.335,0.061,0.481,0.15    c0.269,0.138,0.654,0.095,0.808,0.414C57.36,38.43,56.895,38.027,56.372,38.152z"></path><path fill="#000000" stroke="#010202" stroke-width="0.0068" d="M70.793,29.846c-0.263-3.14-0.829-6.257-1.812-9.245    c-0.121-0.451-0.379-0.867-0.439-1.344l-1.634-2.73c-0.206-0.128-0.362-0.325-0.513-0.515c-0.906-0.999-2.006-1.854-3.272-2.348    c-0.382-0.154-0.766-0.327-1.188-0.363c-0.27-0.044-0.549,0.02-0.817-0.006c-0.62-0.04-1.245-0.114-1.867-0.032    c-0.482,0.106-1.016,0.169-1.438,0.442c-0.097,0.063-0.188,0.138-0.272,0.227c-0.067,0.152,0.099,0.305,0.229,0.367    c0.411,0.203,0.83,0.373,1.229,0.601c-0.045,0.223-0.093,0.438-0.087,0.668c0.066,0.25,0.189,0.475,0.315,0.699    c0.223,0.39,0.719,0.438,1.016,0.747c0.576,0.589,0.253,1.548,0.81,2.149c0.305,0.369,0.551,0.781,0.821,1.171    c-0.164,0.303-0.343,0.644-0.262,0.998c0.113,0.315,0.43,0.5,0.591,0.786c0.044,0.151-0.009,0.313-0.041,0.463    c-0.067-0.175-0.097-0.381-0.21-0.538c-0.15-0.144-0.351-0.229-0.5-0.383c-0.139-0.188-0.218-0.412-0.367-0.583    c-0.29-0.33-0.792-0.357-1.053-0.715c-0.317-0.39-0.45-0.955-0.243-1.423c0.146-0.302-0.121-0.591-0.299-0.811    c-0.318-0.156-0.742-0.117-0.974-0.408c-0.271-0.267,0.245-0.623-0.034-0.885c-0.23-0.245-0.258-0.603-0.423-0.896    c-0.151-0.237,0.027-0.531-0.116-0.771c-0.157-0.279-0.315-0.652-0.681-0.686c-0.353-0.135-0.62,0.166-0.825,0.4    c-0.591,0.559-0.856,1.38-0.921,2.176c-0.121,0.828-0.112,1.672-0.009,2.499c0.106,1.365,0.606,2.654,1.107,3.914    c0.113,0.361,0.341,0.664,0.5,1.008c0.146,0.305,0.256,0.631,0.415,0.928c0.154,0.291,0.469,0.458,0.613,0.745    c0.052,0.212-0.11,0.393-0.187,0.579c-0.174,0.412-0.351,0.864-0.273,1.322c0.029,0.346,0.297,0.653,0.201,1.009    c-0.215,0.045-0.443,0.069-0.628,0.198c-0.103,0.126,0.002,0.27,0.059,0.395c0.258,0.509,0.824,0.739,1.154,1.196    c-0.082,0.096-0.17,0.185-0.252,0.281c0.141,0.392,0.559,0.544,0.865,0.791c-0.075,0.109-0.149,0.22-0.217,0.325    c0.413,0.425,0.96,0.668,1.388,1.056c0.128,0.4,0.296,0.823,0.184,1.244c0.538,0.305,1.183,0.415,1.623,0.87    c0.077,0.16,0.079,0.383,0.269,0.465c0.374,0.207,1.27,0.755,1.816,1.145c-0.22,0.05-0.435,0.12-0.632,0.212l-0.001-0.002    c-0.358,0.243-0.695,0.538-0.968,0.878c-0.146,0.162-0.256,0.368-0.457,0.47c-0.717,0.363-1.37,0.832-2.035,1.282    c-0.229,0.182-0.471,0.355-0.594,0.616c-0.294,0.586-0.735,1.066-1.113,1.59c-0.168,0.484-0.29,1.061,0.018,1.512    c0.255,0.473,0.8,0.698,1.294,0.851c0.64,0.103,1.297,0.28,1.95,0.169c0.335-0.032,0.674-0.076,1.015-0.083    c0.457,0.045,0.966,0.226,1.384-0.043c0.174-0.084,0.34-0.259,0.551-0.235c0.092,0.076,0.25-0.17,0.313-0.078    c0.338-0.154,0.302-0.207,0.446-0.544c0.078-0.196,0.163-0.238,0.094-0.401c0.32-0.042,0.604-0.222,0.921-0.271    c0.17-0.028,0.303-0.134,0.441-0.216c-0.088-0.191-0.167-0.387-0.225-0.594c0.168-0.186,0.405-0.243,0.645-0.265    c0.226-0.013,0.319-0.247,0.46-0.386c0.178-0.125,0.392-0.188,0.551-0.329c-0.14-0.356-0.44-0.643-0.46-1.033    c-0.018-0.186-0.141-0.345-0.203-0.513c0.01-0.202,0.066-0.387,0.109-0.58c0.028-0.15,0.179-0.204,0.3-0.278    c0.614-0.251,1.354-0.633,1.504-0.83c0.353-0.379,0.553-0.872,0.714-1.352c0.25-0.831,0.401-1.687,0.56-2.547    C70.932,32.639,70.875,31.234,70.793,29.846z"></path><polygon fill="#000000" stroke="#010202" stroke-width="0.0068" points="63.51,45.949 63.51,45.949 63.51,45.949   "></polygon><polygon fill="#000000" stroke="#010202" stroke-width="0.0068" points="54.96,82.479 54.959,82.479 54.959,82.48   "></polygon></g><text transform="matrix(1 0 0 1 124 39)" font-family="'MyriadPro-Regular'" font-size="12">thanks to James Keuning</text></g></svg>